<?xml version="1.0" encoding="UTF-8"?>
<svg id="_Слой_1" data-name="Слой 1" xmlns="http://www.w3.org/2000/svg" viewBox="0 0 559.11 326.08">
  <defs>
    <style>
      .cls-1 {
        fill: currentColor;
      }
    </style>
  </defs>
  <path class="cls-1" d="M118.49,195.97c21.16-7.6,42.31-15.2,63.47-22.8,21.34,3.98,42.68,7.97,64.02,11.95-10.67-8.29-21.34-16.58-32.01-24.88,14.72-5.1,29.44-10.21,44.15-15.31-20.61,1.05-41.21,2.1-61.82,3.15-9.01-7.43-18.03-14.85-27.04-22.28-5.49,8.05-10.99,16.11-16.48,24.16-26.33,1.44-52.67,2.89-79,4.33,22.1,3.91,44.2,7.83,66.3,11.74-7.2,9.98-14.39,19.95-21.59,29.93Z"/>
  <path class="cls-1" d="M88.15,56.49c-6.03,4.18-12.05,8.37-18.08,12.55-23.36-.4-46.71-.8-70.07-1.2,17.55,3.84,35.11,7.68,52.66,11.52-8.18,6.3-16.36,12.61-24.55,18.91,20.31-4.76,40.61-9.51,60.92-14.27,17.78,4.18,35.56,8.37,53.33,12.55-6.99-5.73-13.98-11.46-20.98-17.19,14.58-2.81,29.16-5.62,43.74-8.42-18.97-.34-37.94-.69-56.9-1.03-6.69-4.47-13.39-8.94-20.08-13.41Z"/>
  <path class="cls-1" d="M133.59,15.76c-4.37,3.6-8.74,7.2-13.1,10.8,13.95-1.8,27.89-3.6,41.84-5.4,14.18,3.75,28.35,7.5,42.53,11.25-6.13-4.9-12.26-9.8-18.39-14.7,10.5-.65,21-1.3,31.49-1.95-15.32-1.06-30.65-2.13-45.97-3.19-5.13-4.19-10.27-8.38-15.4-12.57-4.14,3.66-8.28,7.32-12.41,10.98-15.86-1.18-31.72-2.36-47.58-3.54,12.34,2.77,24.67,5.55,37.01,8.32Z"/>
  <path class="cls-1" d="M213.04,67.22c-8.71-1.26-17.56-2.45-26.52-3.59,8.96,1.12,17.83,2.3,26.58,3.49-.02.02-.04.06-.06.1Z"/>
  <path class="cls-1" d="M559.08,177.69c-1.45,23.36-57.44,47-151.09,65.4,2.06-9.38,3.47-19.5,4.26-30.37,50.94-15.09,80.05-32.45,80.8-49.18.77-17.05-27.84-35.39-76.92-52.34-7.24-2.51-14.91-4.98-23.01-7.4-1.02-1.92-2.08-3.81-3.18-5.65.78.18,1.57.37,2.35.55,17.2,4.06,33.35,8.24,48.28,12.5,12.55,3.57,24.25,7.22,35.04,10.91,11.5,3.9,21.95,7.89,31.25,11.87,34.21,14.67,53.1,29.64,52.22,43.71Z"/>
  <path class="cls-1" d="M352.89,226.43c-2.43,10.95-6.04,20.03-10.79,27.25-23.66,3.51-48.96,6.71-75.72,9.55-17.67,1.88-36,3.61-54.91,5.14-31.54,2.59-64.71,4.69-99.28,6.22.35,6.83.73,13.65,1.08,20.5l-77.52-32.11c24.54-10.65,49.06-21.32,73.6-31.97l1.53,22.79c31.64-1.37,61.85-3.37,90.43-5.92,16.93-1.53,33.27-3.24,48.98-5.12,38.08-4.53,72.5-10.08,102.59-16.32Z"/>
  <g>
    <path class="cls-1" d="M253.34,248.3c-1.06-1.69-2.08-3.55-3.04-5.55-3.57-7.36-6.51-16.81-8.85-28.31l-50.51-8.81c1.73,15.16,5.18,29.23,10.38,42.23,2.86,7.16,6.26,13.99,10.16,20.5,18.91-1.53,37.23-3.26,54.91-5.14-5.08-4.02-9.42-9-13.05-14.93ZM378.12,86.27c-19.15-25.87-44.06-41.51-74.76-46.86-40.19-7-70.27,2.22-90.26,27.72,64.54,8.81,123.17,19.42,172.92,31.05-2.43-4.12-5.08-8.08-7.91-11.91Z"/>
    <path class="cls-1" d="M408.85,202.22c-.12,3.57-.29,7.08-.53,10.51-.78,10.87-2.2,20.99-4.26,30.37-5.32,24.09-14.87,43.33-28.7,57.71-20.89,21.62-48.9,29.37-84,23.25-28.38-4.94-51.38-18.32-68.99-40.1-4-4.96-7.63-10.16-10.91-15.6,18.91-1.53,37.23-3.26,54.91-5.14,7.47,6,16.56,9.93,27.23,11.79,17.44,3.04,32.07-2.06,43.88-15.3,1.65-1.84,3.18-3.86,4.61-6.04,4.75-7.22,8.36-16.3,10.79-27.25,2.12-9.42,3.37-20.22,3.77-32.39,1-30.56-3.59-55.12-13.77-73.68-10.16-18.56-24.52-29.46-43.08-32.7-18.2-3.18-32.15.33-41.8,10.55-5.39,5.75-9.97,14.87-13.69,27.35l-51-8.91c1.31-16.87,7.49-32.82,18.52-47.86.39-.53.8-1.06,1.22-1.57,67.6,9.61,127.11,22.07,173.41,35.78.92.27,1.84.55,2.75.82,14.36,26.89,20.89,59.69,19.66,98.4Z"/>
  </g>
  <path class="cls-1" d="M543.78,113.39v16.67h-32.99c-9.3-3.98-19.75-7.96-31.25-11.87.69-2.45,1.59-4.81,2.69-7.06,2.71-6.43,9.08-13.24,19.15-20.42,8.73-6.24,14.38-10.71,16.95-13.42,3.94-4.22,5.92-8.83,5.92-13.83,0-4.08-1.14-7.47-3.39-10.18-2.26-2.69-5.49-4.04-9.71-4.04-5.75,0-9.67,2.14-11.75,6.43-1.2,2.49-1.92,6.43-2.14,11.85h-18.42c.31-8.2,1.8-14.83,4.47-19.89,5.04-9.61,14.03-14.42,26.91-14.42,10.2,0,18.3,2.82,24.32,8.47,6.04,5.65,9.04,13.12,9.04,22.44,0,7.12-2.12,13.48-6.38,19.01-2.79,3.67-7.38,7.77-13.77,12.3l-7.57,5.37c-4.75,3.37-7.98,5.81-9.73,7.32-1.77,1.51-3.24,3.26-4.43,5.26h42.08Z"/>
</svg>